<svg width="28" height="28" viewBox="0 0 28 28" fill="none" xmlns="http://www.w3.org/2000/svg">
<g id="laptop-01">
<path id="Icon" d="M3.49992 18.6665V8.39984C3.49992 7.09305 3.49992 6.43965 3.75424 5.94053C3.97794 5.50148 4.3349 5.14453 4.77394 4.92082C5.27307 4.6665 5.92646 4.6665 7.23325 4.6665H20.7666C22.0734 4.6665 22.7268 4.6665 23.2259 4.92082C23.6649 5.14453 24.0219 5.50148 24.2456 5.94053C24.4999 6.43965 24.4999 7.09305 24.4999 8.39984V18.6665H18.2731C17.9878 18.6665 17.8451 18.6665 17.7108 18.6987C17.5918 18.7273 17.478 18.7745 17.3736 18.8384C17.2558 18.9106 17.155 19.0115 16.9532 19.2132L16.88 19.2864C16.6782 19.4882 16.5773 19.5891 16.4596 19.6613C16.3552 19.7252 16.2414 19.7724 16.1224 19.8009C15.9881 19.8332 15.8454 19.8332 15.5601 19.8332H12.4398C12.1544 19.8332 12.0117 19.8332 11.8775 19.8009C11.7584 19.7724 11.6446 19.7252 11.5403 19.6613C11.4225 19.5891 11.3216 19.4882 11.1199 19.2864L11.0467 19.2132C10.8449 19.0115 10.744 18.9106 10.6263 18.8384C10.5219 18.7745 10.4081 18.7273 10.289 18.6987C10.1548 18.6665 10.0121 18.6665 9.72672 18.6665H3.49992ZM3.49992 18.6665C2.85559 18.6665 2.33325 19.1888 2.33325 19.8332V20.2221C2.33325 20.9454 2.33325 21.307 2.41276 21.6037C2.62851 22.409 3.25746 23.0379 4.06267 23.2537C4.3594 23.3332 4.72105 23.3332 5.44436 23.3332H22.5555C23.2788 23.3332 23.6404 23.3332 23.9372 23.2537C24.7424 23.0379 25.3713 22.409 25.5871 21.6037C25.6666 21.307 25.6666 20.9454 25.6666 20.2221C25.6666 19.8604 25.6666 19.6796 25.6268 19.5312C25.519 19.1286 25.2045 18.8141 24.8019 18.7063C24.6535 18.6665 24.4727 18.6665 24.111 18.6665H23.3333" stroke="#444CE7" stroke-width="2.33333" stroke-linecap="round" stroke-linejoin="round"/>
</g>
</svg>
