<svg width="28" height="28" viewBox="0 0 28 28" fill="none" xmlns="http://www.w3.org/2000/svg">
<g id="watch-square">
<path id="Icon" d="M19.8334 21.5835L19.4404 22.9591C19.1631 23.9297 19.0244 24.415 18.7413 24.7752C18.4915 25.0932 18.1633 25.3407 17.789 25.4936C17.3648 25.6668 16.8601 25.6668 15.8507 25.6668H12.1495C11.14 25.6668 10.6353 25.6668 10.2112 25.4936C9.83686 25.3407 9.50867 25.0932 9.25882 24.7752C8.97575 24.415 8.8371 23.9297 8.55978 22.9591L8.16675 21.5835M19.8334 6.41683L19.4404 5.0412C19.1631 4.07062 19.0244 3.58531 18.7413 3.2251C18.4915 2.90716 18.1633 2.65961 17.789 2.50672C17.3648 2.3335 16.8601 2.3335 15.8507 2.3335H12.1495C11.14 2.3335 10.6353 2.3335 10.2112 2.50672C9.83686 2.65961 9.50867 2.90716 9.25882 3.2251C8.97575 3.58531 8.8371 4.07061 8.55978 5.0412L8.16675 6.41683M14.0001 10.5002V14.0002L15.7501 15.7502M10.1501 21.5835H17.8501C19.1569 21.5835 19.8103 21.5835 20.3094 21.3292C20.7484 21.1055 21.1054 20.7485 21.3291 20.3095C21.5834 19.8103 21.5834 19.157 21.5834 17.8502V10.1502C21.5834 8.84337 21.5834 8.18998 21.3291 7.69085C21.1054 7.25181 20.7484 6.89485 20.3094 6.67115C19.8103 6.41683 19.1569 6.41683 17.8501 6.41683H10.1501C8.84329 6.41683 8.1899 6.41683 7.69077 6.67115C7.25173 6.89485 6.89477 7.25181 6.67107 7.69085C6.41675 8.18998 6.41675 8.84337 6.41675 10.1502V17.8502C6.41675 19.157 6.41675 19.8103 6.67107 20.3095C6.89477 20.7485 7.25173 21.1055 7.69077 21.3292C8.1899 21.5835 8.84329 21.5835 10.1501 21.5835Z" stroke="#444CE7" stroke-width="2.33333" stroke-linecap="round" stroke-linejoin="round"/>
</g>
</svg>
