<svg width="28" height="28" viewBox="0 0 28 28" fill="none" xmlns="http://www.w3.org/2000/svg">
<g id="tablet-02">
<path id="Icon" d="M17.5 2.3335V3.96683C17.5 4.62022 17.5 4.94692 17.3728 5.19648C17.2609 5.41601 17.0825 5.59448 16.8629 5.70634C16.6134 5.8335 16.2867 5.8335 15.6333 5.8335H12.3666C11.7132 5.8335 11.3865 5.8335 11.137 5.70634C10.9174 5.59448 10.739 5.41601 10.6271 5.19648C10.5 4.94692 10.5 4.62022 10.5 3.96683V2.3335M14 9.3335L14.0116 17.5002M14 21.0002H14.0116M8.39996 25.6668H19.6C20.9067 25.6668 21.5601 25.6668 22.0593 25.4125C22.4983 25.1888 22.8553 24.8319 23.079 24.3928C23.3333 23.8937 23.3333 23.2403 23.3333 21.9335V6.06683C23.3333 4.76004 23.3333 4.10665 23.079 3.60752C22.8553 3.16847 22.4983 2.81152 22.0593 2.58781C21.5601 2.3335 20.9067 2.3335 19.6 2.3335H8.39996C7.09317 2.3335 6.43978 2.3335 5.94065 2.58781C5.5016 2.81152 5.14465 3.16847 4.92094 3.60752C4.66663 4.10665 4.66663 4.76004 4.66663 6.06683V21.9335C4.66663 23.2403 4.66663 23.8937 4.92094 24.3928C5.14465 24.8319 5.5016 25.1888 5.94065 25.4125C6.43978 25.6668 7.09317 25.6668 8.39996 25.6668Z" stroke="#444CE7" stroke-width="2.33333" stroke-linecap="round" stroke-linejoin="round"/>
</g>
</svg>
