<svg width="36" height="36" viewBox="0 0 36 36" fill="none" xmlns="http://www.w3.org/2000/svg">
<g id="tool">
<path id="Icon" d="M22.05 9.44997C21.7752 9.73036 21.6212 10.1073 21.6212 10.5C21.6212 10.8926 21.7752 11.2696 22.05 11.55L24.45 13.95C24.7304 14.2248 25.1074 14.3788 25.5 14.3788C25.8927 14.3788 26.2696 14.2248 26.55 13.95L32.205 8.29497C32.9593 9.96175 33.1877 11.8188 32.8597 13.6187C32.5318 15.4186 31.6631 17.0757 30.3694 18.3694C29.0758 19.663 27.4186 20.5317 25.6187 20.8597C23.8189 21.1876 21.9618 20.9592 20.295 20.205L9.93003 30.57C9.33329 31.1667 8.52394 31.5019 7.68003 31.5019C6.83611 31.5019 6.02676 31.1667 5.43003 30.57C4.83329 29.9732 4.49805 29.1639 4.49805 28.32C4.49805 27.4761 4.83329 26.6667 5.43003 26.07L15.795 15.705C15.0408 14.0382 14.8124 12.1811 15.1403 10.3813C15.4683 8.58138 16.337 6.9242 17.6306 5.63055C18.9243 4.3369 20.5814 3.46822 22.3813 3.14028C24.1812 2.81234 26.0382 3.04072 27.705 3.79497L22.065 9.43497L22.05 9.44997Z" stroke="#444CE7" stroke-width="3" stroke-linecap="round" stroke-linejoin="round"/>
</g>
</svg>
